<svg width="442" height="326" viewBox="0 0 442 326" fill="none" xmlns="http://www.w3.org/2000/svg">
<g filter="url(#filter0_d_203_395)">
<path d="M364.028 56.6904H224.691V203.293H364.028V56.6904Z" fill="#000201"/>
<path d="M212.494 30.8071H272.626V66.7496H212.494V30.8071Z" fill="#00301B"/>
<path d="M272.676 30.8071H379.883V66.7496H272.676V30.8071Z" fill="#3AB560"/>
<path d="M351.705 66.7597H321.001L340.557 30.8071H371.261L351.705 66.7597Z" fill="#F4EFD4"/>
<path d="M261.472 36.7195H261.462C260.353 36.7195 259.454 37.6191 259.454 38.7288V58.8334C259.454 59.9431 260.353 60.843 261.462 60.843H261.472C262.581 60.843 263.48 59.9431 263.48 58.8334V38.7288C263.48 37.6191 262.581 36.7195 261.472 36.7195Z" fill="#000201"/>
<path d="M255.165 36.7195H255.155C254.046 36.7195 253.147 37.6191 253.147 38.7288V58.8334C253.147 59.9431 254.046 60.843 255.155 60.843H255.165C256.274 60.843 257.173 59.9431 257.173 58.8334V38.7288C257.173 37.6191 256.274 36.7195 255.165 36.7195Z" fill="#000201"/>
<path d="M248.886 36.7195H248.876C247.767 36.7195 246.868 37.6191 246.868 38.7288V58.8334C246.868 59.9431 247.767 60.843 248.876 60.843H248.886C249.995 60.843 250.894 59.9431 250.894 58.8334V38.7288C250.894 37.6191 249.995 36.7195 248.886 36.7195Z" fill="#000201"/>
<path d="M224.898 61.3029C226.351 61.3029 227.529 60.124 227.529 58.6696C227.529 57.2155 226.351 56.0366 224.898 56.0366C223.445 56.0366 222.267 57.2155 222.267 58.6696C222.267 60.124 223.445 61.3029 224.898 61.3029Z" fill="#000201"/>
<path d="M224.903 41.3417C226.329 41.3417 227.485 40.1851 227.485 38.7583C227.485 37.3314 226.329 36.1746 224.903 36.1746C223.477 36.1746 222.321 37.3314 222.321 38.7583C222.321 40.1851 223.477 41.3417 224.903 41.3417Z" fill="#000201"/>
<path d="M224.907 60.2109H222.246C220.129 60.2109 218.398 58.4787 218.398 56.3603V41.0469C218.398 38.9286 220.129 37.1963 222.246 37.1963H224.907C225.758 37.1963 226.46 37.8891 226.46 38.7504C226.46 39.6116 225.768 40.3045 224.907 40.3045H222.8C222.385 40.3045 222.049 40.641 222.049 41.0567V56.3701C222.049 56.7859 222.385 57.1227 222.8 57.1227H224.907C225.758 57.1227 226.46 57.8155 226.46 58.6767C226.46 59.538 225.768 60.2308 224.907 60.2308V60.2109Z" fill="#F4EFD4"/>
<path d="M219.437 56.3603V41.0469C219.437 38.2158 221.376 37.1963 223.502 37.1963H222.246C220.129 37.1963 218.398 38.9286 218.398 41.0469V56.3603C218.398 58.4787 220.129 60.211 222.246 60.211H223.502C221.386 60.211 219.437 59.0824 219.437 56.3603Z" fill="#058A40"/>
<path d="M289.531 30.8071H291.628V66.7496H289.531V30.8071Z" fill="#058A40"/>
<path d="M345.078 63.422C347.575 63.422 349.599 61.3965 349.599 58.8981C349.599 56.4 347.575 54.3745 345.078 54.3745C342.582 54.3745 340.558 56.4 340.558 58.8981C340.558 61.3965 342.582 63.422 345.078 63.422Z" fill="#058A40"/>
<path d="M351.083 58.8925C351.083 61.6443 348.403 62.5254 346.394 62.5254C344.386 62.5254 342.764 60.9018 342.764 58.8925C342.764 56.8831 344.386 55.2595 346.394 55.2595C348.403 55.2595 351.083 56.1306 351.083 58.8925Z" fill="#FFBE00"/>
<path d="M357.583 63.422C360.08 63.422 362.104 61.3965 362.104 58.8981C362.104 56.4 360.08 54.3745 357.583 54.3745C355.086 54.3745 353.062 56.4 353.062 58.8981C353.062 61.3965 355.086 63.422 357.583 63.422Z" fill="#00301B"/>
<path d="M363.574 58.8925C363.574 61.6443 360.893 62.5254 358.885 62.5254C356.877 62.5254 355.255 60.9018 355.255 58.8925C355.255 56.8831 356.877 55.2595 358.885 55.2595C360.893 55.2595 363.574 56.1306 363.574 58.8925Z" fill="#03ABFD"/>
<path d="M369.651 63.422C372.148 63.422 374.172 61.3965 374.172 58.8981C374.172 56.4 372.148 54.3745 369.651 54.3745C367.155 54.3745 365.131 56.4 365.131 58.8981C365.131 61.3965 367.155 63.422 369.651 63.422Z" fill="#00301B"/>
<path d="M375.643 58.8925C375.643 61.6443 372.962 62.5254 370.954 62.5254C368.946 62.5254 367.324 60.9018 367.324 58.8925C367.324 56.8831 368.946 55.2595 370.954 55.2595C372.962 55.2595 375.643 56.1306 375.643 58.8925Z" fill="#FFBE00"/>
<path d="M212.494 72.4111H272.626V108.354H212.494V72.4111Z" fill="#00301B"/>
<path d="M272.676 72.4111H379.883V108.354H272.676V72.4111Z" fill="#058A40"/>
<path d="M261.472 78.3372H261.462C260.353 78.3372 259.454 79.2368 259.454 80.3465V100.451C259.454 101.561 260.353 102.461 261.462 102.461H261.472C262.581 102.461 263.48 101.561 263.48 100.451V80.3465C263.48 79.2368 262.581 78.3372 261.472 78.3372Z" fill="#000201"/>
<path d="M255.165 78.3372H255.155C254.046 78.3372 253.147 79.2368 253.147 80.3465V100.451C253.147 101.561 254.046 102.461 255.155 102.461H255.165C256.274 102.461 257.173 101.561 257.173 100.451V80.3465C257.173 79.2368 256.274 78.3372 255.165 78.3372Z" fill="#000201"/>
<path d="M226.655 78.3372H226.645C225.536 78.3372 224.637 79.2368 224.637 80.3465V100.451C224.637 101.561 225.536 102.461 226.645 102.461H226.655C227.764 102.461 228.663 101.561 228.663 100.451V80.3465C228.663 79.2368 227.764 78.3372 226.655 78.3372Z" fill="#000201"/>
<path d="M220.362 78.3372H220.352C219.243 78.3372 218.344 79.2368 218.344 80.3465V100.451C218.344 101.561 219.243 102.461 220.352 102.461H220.362C221.471 102.461 222.37 101.561 222.37 100.451V80.3465C222.37 79.2368 221.471 78.3372 220.362 78.3372Z" fill="#000201"/>
<path d="M241.993 102.907C243.447 102.907 244.625 101.728 244.625 100.274C244.625 98.8195 243.447 97.6406 241.993 97.6406C240.54 97.6406 239.362 98.8195 239.362 100.274C239.362 101.728 240.54 102.907 241.993 102.907Z" fill="#000201"/>
<path d="M241.998 82.9457C243.424 82.9457 244.58 81.7891 244.58 80.3623C244.58 78.9354 243.424 77.7786 241.998 77.7786C240.572 77.7786 239.417 78.9354 239.417 80.3623C239.417 81.7891 240.572 82.9457 241.998 82.9457Z" fill="#000201"/>
<path d="M241.989 101.829H239.328C237.211 101.829 235.48 100.096 235.48 97.978V82.6646C235.48 80.5462 237.211 78.814 239.328 78.814H241.989C242.84 78.814 243.542 79.5068 243.542 80.3681C243.542 81.2293 242.849 81.9221 241.989 81.9221H239.882C239.467 81.9221 239.13 82.2586 239.13 82.6744V97.9881C239.13 98.4036 239.467 98.7403 239.882 98.7403H241.989C242.84 98.7403 243.542 99.4332 243.542 100.294C243.542 101.156 242.849 101.849 241.989 101.849V101.829Z" fill="#F4EFD4"/>
<path d="M236.518 97.978V82.6646C236.518 79.8335 238.457 78.814 240.584 78.814H239.328C237.211 78.814 235.48 80.5462 235.48 82.6646V97.978C235.48 100.096 237.211 101.829 239.328 101.829H240.584C238.467 101.829 236.518 100.7 236.518 97.978Z" fill="#058A40"/>
<path d="M358.225 72.4111H327.521L318.312 89.338H349.016L358.225 72.4111Z" fill="#F4EFD4"/>
<path d="M307.961 108.369H338.665L347.874 91.4424H317.17L307.961 108.369Z" fill="#F4EFD4"/>
<path d="M379.87 89.3445H349.008L347.87 91.4429H379.87V89.3445Z" fill="#02512D"/>
<path d="M272.606 89.3369V91.4356H317.169L318.306 89.3369H272.606Z" fill="#02512D"/>
<path d="M318.306 89.3331L317.168 91.4318L347.872 91.4322L349.01 89.3335L318.306 89.3331Z" fill="#3AB560"/>
<path d="M369.651 105.026C372.148 105.026 374.172 103.001 374.172 100.502C374.172 98.0042 372.148 95.9788 369.651 95.9788C367.155 95.9788 365.131 98.0042 365.131 100.502C365.131 103.001 367.155 105.026 369.651 105.026Z" fill="#00301B"/>
<path d="M375.643 100.497C375.643 103.249 372.962 104.13 370.954 104.13C368.946 104.13 367.324 102.506 367.324 100.497C367.324 98.4873 368.946 96.8638 370.954 96.8638C372.962 96.8638 375.643 97.7348 375.643 100.497Z" fill="#00FFC8"/>
<path d="M212.494 114.029H272.626V149.971H212.494V114.029Z" fill="#00301B"/>
<path d="M272.676 114.029H379.883V149.971H272.676V114.029Z" fill="#02512D"/>
<path d="M351.705 149.971H321.001L340.557 114.029H371.261L351.705 149.971Z" fill="#058A40"/>
<path d="M261.472 119.941H261.462C260.353 119.941 259.454 120.841 259.454 121.951V142.055C259.454 143.165 260.353 144.065 261.462 144.065H261.472C262.581 144.065 263.48 143.165 263.48 142.055V121.951C263.48 120.841 262.581 119.941 261.472 119.941Z" fill="#000201"/>
<path d="M255.165 119.941H255.155C254.046 119.941 253.147 120.841 253.147 121.951V142.055C253.147 143.165 254.046 144.065 255.155 144.065H255.165C256.274 144.065 257.173 143.165 257.173 142.055V121.951C257.173 120.841 256.274 119.941 255.165 119.941Z" fill="#000201"/>
<path d="M248.886 119.941H248.876C247.767 119.941 246.868 120.841 246.868 121.951V142.055C246.868 143.165 247.767 144.065 248.876 144.065H248.886C249.995 144.065 250.894 143.165 250.894 142.055V121.951C250.894 120.841 249.995 119.941 248.886 119.941Z" fill="#000201"/>
<path d="M224.898 144.511C226.351 144.511 227.529 143.332 227.529 141.878C227.529 140.424 226.351 139.245 224.898 139.245C223.445 139.245 222.267 140.424 222.267 141.878C222.267 143.332 223.445 144.511 224.898 144.511Z" fill="#000201"/>
<path d="M224.903 124.55C226.329 124.55 227.485 123.393 227.485 121.967C227.485 120.54 226.329 119.383 224.903 119.383C223.477 119.383 222.321 120.54 222.321 121.967C222.321 123.393 223.477 124.55 224.903 124.55Z" fill="#000201"/>
<path d="M224.907 143.433H222.246C220.129 143.433 218.398 141.701 218.398 139.582V124.269C218.398 122.15 220.129 120.418 222.246 120.418H224.907C225.758 120.418 226.46 121.111 226.46 121.972C226.46 122.834 225.768 123.526 224.907 123.526H222.8C222.385 123.526 222.049 123.863 222.049 124.279V139.592C222.049 140.008 222.385 140.345 222.8 140.345H224.907C225.758 140.345 226.46 141.037 226.46 141.899C226.46 142.76 225.768 143.453 224.907 143.453V143.433Z" fill="#F4EFD4"/>
<path d="M219.437 139.582V124.269C219.437 121.438 221.376 120.418 223.502 120.418H222.246C220.129 120.418 218.398 122.15 218.398 124.269V139.582C218.398 141.701 220.129 143.433 222.246 143.433H223.502C221.386 143.433 219.437 142.304 219.437 139.582Z" fill="#058A40"/>
<path d="M289.531 114.029H291.628V149.971H289.531V114.029Z" fill="#000201"/>
<path d="M345.078 146.63C347.575 146.63 349.599 144.605 349.599 142.106C349.599 139.608 347.575 137.583 345.078 137.583C342.582 137.583 340.558 139.608 340.558 142.106C340.558 144.605 342.582 146.63 345.078 146.63Z" fill="#02512D"/>
<path d="M351.083 142.114C351.083 144.866 348.403 145.747 346.394 145.747C344.386 145.747 342.764 144.124 342.764 142.114C342.764 140.105 344.386 138.481 346.394 138.481C348.403 138.481 351.083 139.352 351.083 142.114Z" fill="#00FFC8"/>
<path d="M357.583 146.63C360.08 146.63 362.104 144.605 362.104 142.106C362.104 139.608 360.08 137.583 357.583 137.583C355.086 137.583 353.062 139.608 353.062 142.106C353.062 144.605 355.086 146.63 357.583 146.63Z" fill="#00301B"/>
<path d="M363.574 142.114C363.574 144.866 360.893 145.747 358.885 145.747C356.877 145.747 355.255 144.124 355.255 142.114C355.255 140.105 356.877 138.481 358.885 138.481C360.893 138.481 363.574 139.352 363.574 142.114Z" fill="#03ABFD"/>
<path d="M369.651 146.63C372.148 146.63 374.172 144.605 374.172 142.106C374.172 139.608 372.148 137.583 369.651 137.583C367.155 137.583 365.131 139.608 365.131 142.106C365.131 144.605 367.155 146.63 369.651 146.63Z" fill="#00301B"/>
<path d="M375.643 142.114C375.643 144.866 372.962 145.747 370.954 145.747C368.946 145.747 367.324 144.124 367.324 142.114C367.324 140.105 368.946 138.481 370.954 138.481C372.962 138.481 375.643 139.352 375.643 142.114Z" fill="#FFBE00"/>
<path d="M212.494 197.264H272.626V233.207H212.494V197.264Z" fill="#00301B"/>
<path d="M272.676 197.264H379.883V233.207H272.676V197.264Z" fill="#02512D"/>
<path d="M351.705 233.207H321.001L340.557 197.264H371.261L351.705 233.207Z" fill="#058A40"/>
<path d="M261.472 203.163H261.462C260.353 203.163 259.454 204.063 259.454 205.172V225.277C259.454 226.387 260.353 227.287 261.462 227.287H261.472C262.581 227.287 263.48 226.387 263.48 225.277V205.172C263.48 204.063 262.581 203.163 261.472 203.163Z" fill="#000201"/>
<path d="M255.165 203.163H255.155C254.046 203.163 253.147 204.063 253.147 205.172V225.277C253.147 226.387 254.046 227.287 255.155 227.287H255.165C256.274 227.287 257.173 226.387 257.173 225.277V205.172C257.173 204.063 256.274 203.163 255.165 203.163Z" fill="#000201"/>
<path d="M248.886 203.163H248.876C247.767 203.163 246.868 204.063 246.868 205.172V225.277C246.868 226.387 247.767 227.287 248.876 227.287H248.886C249.995 227.287 250.894 226.387 250.894 225.277V205.172C250.894 204.063 249.995 203.163 248.886 203.163Z" fill="#000201"/>
<path d="M224.898 227.747C226.351 227.747 227.529 226.568 227.529 225.113C227.529 223.659 226.351 222.48 224.898 222.48C223.445 222.48 222.267 223.659 222.267 225.113C222.267 226.568 223.445 227.747 224.898 227.747Z" fill="#000201"/>
<path d="M224.903 207.785C226.329 207.785 227.485 206.629 227.485 205.202C227.485 203.775 226.329 202.618 224.903 202.618C223.477 202.618 222.321 203.775 222.321 205.202C222.321 206.629 223.477 207.785 224.903 207.785Z" fill="#000201"/>
<path d="M224.907 226.668H222.246C220.129 226.668 218.398 224.936 218.398 222.818V207.504C218.398 205.386 220.129 203.654 222.246 203.654H224.907C225.758 203.654 226.46 204.346 226.46 205.208C226.46 206.069 225.768 206.762 224.907 206.762H222.8C222.385 206.762 222.049 207.098 222.049 207.514V222.828C222.049 223.243 222.385 223.58 222.8 223.58H224.907C225.758 223.58 226.46 224.273 226.46 225.134C226.46 225.995 225.768 226.688 224.907 226.688V226.668Z" fill="#F4EFD4"/>
<path d="M219.437 222.818V207.504C219.437 204.673 221.376 203.654 223.502 203.654H222.246C220.129 203.654 218.398 205.386 218.398 207.504V222.818C218.398 224.936 220.129 226.668 222.246 226.668H223.502C221.386 226.668 219.437 225.54 219.437 222.818Z" fill="#058A40"/>
<path d="M289.531 197.264H291.628V233.207H289.531V197.264Z" fill="#000201"/>
<path d="M345.078 229.866C347.575 229.866 349.599 227.84 349.599 225.342C349.599 222.844 347.575 220.818 345.078 220.818C342.582 220.818 340.558 222.844 340.558 225.342C340.558 227.84 342.582 229.866 345.078 229.866Z" fill="#02512D"/>
<path d="M351.083 225.336C351.083 228.088 348.403 228.969 346.394 228.969C344.386 228.969 342.764 227.345 342.764 225.336C342.764 223.327 344.386 221.703 346.394 221.703C348.403 221.703 351.083 222.574 351.083 225.336Z" fill="#00FFC8"/>
<path d="M357.583 229.866C360.08 229.866 362.104 227.84 362.104 225.342C362.104 222.844 360.08 220.818 357.583 220.818C355.086 220.818 353.062 222.844 353.062 225.342C353.062 227.84 355.086 229.866 357.583 229.866Z" fill="#00301B"/>
<path d="M363.574 225.336C363.574 228.088 360.893 228.969 358.885 228.969C356.877 228.969 355.255 227.345 355.255 225.336C355.255 223.327 356.877 221.703 358.885 221.703C360.893 221.703 363.574 222.574 363.574 225.336Z" fill="#03ABFD"/>
<path d="M369.651 229.866C372.148 229.866 374.172 227.84 374.172 225.342C374.172 222.844 372.148 220.818 369.651 220.818C367.155 220.818 365.131 222.844 365.131 225.342C365.131 227.84 367.155 229.866 369.651 229.866Z" fill="#00301B"/>
<path d="M375.643 225.336C375.643 228.088 372.962 228.969 370.954 228.969C368.946 228.969 367.324 227.345 367.324 225.336C367.324 223.327 368.946 221.703 370.954 221.703C372.962 221.703 375.643 222.574 375.643 225.336Z" fill="#FFBE00"/>
<path d="M312.93 131.161L195.95 120.609L199.135 155.324L312.93 131.161Z" fill="#001410"/>
<path d="M212.494 155.633H272.626V191.576H212.494V155.633Z" fill="#00301B"/>
<path d="M272.676 155.633H379.883V191.576H272.676V155.633Z" fill="#02512D"/>
<path d="M261.472 161.545H261.462C260.353 161.545 259.454 162.445 259.454 163.555V183.659C259.454 184.769 260.353 185.669 261.462 185.669H261.472C262.581 185.669 263.48 184.769 263.48 183.659V163.555C263.48 162.445 262.581 161.545 261.472 161.545Z" fill="#000201"/>
<path d="M255.165 161.545H255.155C254.046 161.545 253.147 162.445 253.147 163.555V183.659C253.147 184.769 254.046 185.669 255.155 185.669H255.165C256.274 185.669 257.173 184.769 257.173 183.659V163.555C257.173 162.445 256.274 161.545 255.165 161.545Z" fill="#000201"/>
<path d="M226.655 161.545H226.645C225.536 161.545 224.637 162.445 224.637 163.555V183.659C224.637 184.769 225.536 185.669 226.645 185.669H226.655C227.764 185.669 228.663 184.769 228.663 183.659V163.555C228.663 162.445 227.764 161.545 226.655 161.545Z" fill="#000201"/>
<path d="M220.362 161.545H220.352C219.243 161.545 218.344 162.445 218.344 163.555V183.659C218.344 184.769 219.243 185.669 220.352 185.669H220.362C221.471 185.669 222.37 184.769 222.37 183.659V163.555C222.37 162.445 221.471 161.545 220.362 161.545Z" fill="#000201"/>
<path d="M241.993 186.115C243.447 186.115 244.625 184.936 244.625 183.482C244.625 182.028 243.447 180.849 241.993 180.849C240.54 180.849 239.362 182.028 239.362 183.482C239.362 184.936 240.54 186.115 241.993 186.115Z" fill="#000201"/>
<path d="M241.998 166.154C243.424 166.154 244.58 164.997 244.58 163.571C244.58 162.144 243.424 160.987 241.998 160.987C240.572 160.987 239.417 162.144 239.417 163.571C239.417 164.997 240.572 166.154 241.998 166.154Z" fill="#000201"/>
<path d="M241.989 185.037H239.328C237.211 185.037 235.48 183.305 235.48 181.186V165.873C235.48 163.754 237.211 162.022 239.328 162.022H241.989C242.84 162.022 243.542 162.715 243.542 163.576C243.542 164.438 242.849 165.13 241.989 165.13H239.882C239.467 165.13 239.13 165.467 239.13 165.883V181.196C239.13 181.612 239.467 181.949 239.882 181.949H241.989C242.84 181.949 243.542 182.641 243.542 183.503C243.542 184.364 242.849 185.057 241.989 185.057V185.037Z" fill="#058A40"/>
<path d="M236.518 181.186V165.873C236.518 163.042 238.457 162.022 240.584 162.022H239.328C237.211 162.022 235.48 163.754 235.48 165.873V181.186C235.48 183.305 237.211 185.037 239.328 185.037H240.584C238.467 185.037 236.518 183.908 236.518 181.186Z" fill="#02512D"/>
<path d="M358.225 155.633H327.521L318.312 172.55H349.016L358.225 155.633Z" fill="#058A40"/>
<path d="M307.961 191.577H338.665L347.874 174.65H317.17L307.961 191.577Z" fill="#058A40"/>
<path d="M379.87 172.552H349.008L347.87 174.651H379.87V172.552Z" fill="#000201"/>
<path d="M272.606 172.545V174.644H317.169L318.306 172.545H272.606Z" fill="#000201"/>
<path d="M318.306 172.542L317.168 174.64L347.872 174.641L349.01 172.542L318.306 172.542Z" fill="#02512D"/>
<path d="M369.651 188.234C372.148 188.234 374.172 186.209 374.172 183.71C374.172 181.212 372.148 179.187 369.651 179.187C367.155 179.187 365.131 181.212 365.131 183.71C365.131 186.209 367.155 188.234 369.651 188.234Z" fill="#000201"/>
<path d="M375.643 183.718C375.643 186.47 372.962 187.351 370.954 187.351C368.946 187.351 367.324 185.728 367.324 183.718C367.324 181.709 368.946 180.085 370.954 180.085C372.962 180.085 375.643 180.956 375.643 183.718Z" fill="#03ABFD"/>
<path d="M39.4211 153.784L34.5248 168.751L29.6281 153.784L34.5244 138.817L39.4211 153.784Z" fill="#00301B"/>
<path d="M34.5276 158.694L19.5711 153.794L34.5276 148.894L49.4838 153.794L34.5276 158.694Z" fill="#00301B"/>
<path d="M145.147 71.0081H156.038V114.058H145.147V71.0081Z" fill="#058A40"/>
<path d="M156.036 79.7885L150.586 83.1839L145.146 66.6728L156.037 66.6725L156.036 79.7885Z" fill="#058A40"/>
<path d="M167.671 92.632H150.578L156.028 88.9495H167.671V92.632Z" fill="#3AB560"/>
<path d="M167.671 92.6274H150.578L156.028 96.31H167.671V92.6274Z" fill="#02512D"/>
<path d="M171.199 104.456H150.585L156.035 100.774H171.199V104.456Z" fill="#3AB560"/>
<path d="M171.199 104.466H150.585L156.035 108.148H171.199V104.466Z" fill="#00301B"/>
<path d="M145.139 71.0081H150.589V114.058H145.139V71.0081Z" fill="#00301B"/>
<path d="M164.272 74.583L150.591 76.2066L136.11 77.9291L136.664 67.3569L164.885 67.0303L164.272 74.583Z" fill="#001410"/>
<path d="M140.228 65.9812H160.942V72.4749H140.228V65.9812Z" fill="#058A40"/>
<path d="M140.233 65.9812H150.589V72.4749H140.233V65.9812Z" fill="#02512D"/>
<path d="M127.954 32.5291L120.071 32.4103L118.577 6L103.581 39.6857L128.043 50.7428L127.954 32.5291Z" fill="#00301B"/>
<path d="M111.643 37.2141L128.884 43.8169L128.577 32.5126L120.08 32.4135L111.643 37.2141Z" fill="#058A40"/>
<path d="M118.575 6L111.631 37.211L120.069 32.41L118.575 6Z" fill="#058A40"/>
<path d="M123.376 28.3687H149.718V53.7689H123.376V28.3687Z" fill="#00301B"/>
<path d="M173.468 33.0877L181.351 32.9689L182.845 6.55859L197.841 40.2443L173.378 51.3014L173.468 33.0877Z" fill="#02512D"/>
<path d="M189.791 37.7665L172.54 44.3791L174.587 50.7439L197.843 40.241L189.791 37.7665Z" fill="#058A40"/>
<path d="M182.846 6.55859L189.79 37.7696L197.842 40.2443L182.846 6.55859Z" fill="#F4EFD4"/>
<path d="M151.464 28.3687H177.806V53.7689H151.464V28.3687Z" fill="#058A40"/>
<path d="M137.794 54.8379H163.394V67.8251H137.794V54.8379Z" fill="#3AB560"/>
<path d="M137.789 54.8379H150.589V67.8251H137.789V54.8379Z" fill="#058A40"/>
<path d="M150.594 65.353C163.995 65.353 174.858 54.4817 174.858 41.0712C174.858 27.6609 163.995 16.7893 150.594 16.7893C137.193 16.7893 126.329 27.6609 126.329 41.0712C126.329 54.4817 137.193 65.353 150.594 65.353Z" fill="#3AB560"/>
<path d="M150.589 16.7893V65.353C163.993 65.353 174.854 54.4842 174.854 41.0712C174.854 27.6584 163.993 16.7893 150.589 16.7893Z" fill="#F4EFD4"/>
<path d="M150.587 57.5646C159.689 57.5646 167.067 50.181 167.067 41.0731C167.067 31.9651 159.689 24.5815 150.587 24.5815C141.486 24.5815 134.107 31.9651 134.107 41.0731C134.107 50.181 141.486 57.5646 150.587 57.5646Z" fill="#02512D"/>
<path d="M150.587 26.5018C159.361 26.5018 166.523 33.3715 167.017 42.0332C167.037 41.7163 167.067 41.3995 167.067 41.0731C167.067 31.9659 159.688 24.5815 150.587 24.5815C141.487 24.5815 134.107 31.9659 134.107 41.0731C134.107 41.3995 134.137 41.7163 134.157 42.0332C134.661 33.3715 141.813 26.5018 150.587 26.5018Z" fill="#02512D"/>
<path d="M134.105 41.0774C134.105 50.1842 141.484 57.5686 150.585 57.5686C159.685 57.5686 167.064 50.1842 167.064 41.0774H134.095H134.105Z" fill="#00301B"/>
<path d="M167.068 41.0676C167.068 41.0676 160.243 49.5015 150.588 49.5015C140.934 49.5015 134.108 41.0676 134.108 41.0676C134.108 41.0676 142.111 32.6337 150.588 32.6337C159.065 32.6337 167.068 41.0676 167.068 41.0676Z" fill="#058A40"/>
<path d="M150.586 48.1242C154.482 48.1242 157.639 44.9643 157.639 41.0665C157.639 37.1685 154.482 34.0085 150.586 34.0085C146.691 34.0085 143.534 37.1685 143.534 41.0665C143.534 44.9643 146.691 48.1242 150.586 48.1242Z" fill="#02512D"/>
<path d="M150.592 45.8719C153.242 45.8719 155.39 43.7225 155.39 41.071C155.39 38.4194 153.242 36.27 150.592 36.27C147.943 36.27 145.795 38.4194 145.795 41.071C145.795 43.7225 147.943 45.8719 150.592 45.8719Z" fill="#F4EFD4"/>
<path d="M153.363 40.5458C153.908 40.0899 153.847 39.1186 153.227 38.3761C152.607 37.6338 151.662 37.4013 151.117 37.8572C150.573 38.3129 150.634 39.2844 151.254 40.0267C151.874 40.7692 152.818 41.0015 153.363 40.5458Z" fill="#F4EFD4"/>
<path d="M152.995 43.4027C153.517 43.3473 153.897 42.9058 153.845 42.4165C153.793 41.9275 153.329 41.5757 152.807 41.6311C152.286 41.6865 151.905 42.1281 151.957 42.6171C152.009 43.1064 152.474 43.4582 152.995 43.4027Z" fill="#F4EFD4"/>
<path d="M123.387 28.3687H122.022L116.918 49.869H123.387V28.3687Z" fill="#001410"/>
<path d="M150.587 104.469L156.037 108.151L156.037 114.06L150.587 114.06L150.587 104.469Z" fill="#058A40"/>
<path d="M181.347 32.9686L189.785 37.7696L182.841 6.55859L181.347 32.9686Z" fill="#00301B"/>
<path d="M170.476 194.594H239.471V212.778H170.476V194.594Z" fill="#00301B"/>
<path d="M347.442 206.901L312.931 131.157L158.281 131.16L192.802 206.904L347.442 206.901Z" fill="#058A40"/>
<path d="M133.001 188.408C123.491 167.497 132.731 142.789 153.637 133.268L158.337 131.127L192.799 206.907L188.099 209.047C167.202 218.564 142.511 209.319 132.997 188.399L133.001 188.408Z" fill="#02512D"/>
<path d="M202.058 194.043L179.268 144.035L303.668 144.032L326.458 194.04L202.058 194.043Z" fill="#00301B"/>
<path d="M303.311 147.875C290.768 158.981 286.337 177.373 293.637 193.429C293.736 193.636 293.835 193.834 293.934 194.042L324.351 194.043L303.311 147.875Z" fill="#000201"/>
<path d="M303.664 144.029L296.275 156.125L184.775 156.123L179.265 144.027L303.664 144.029Z" fill="#02512D"/>
<path d="M303.674 144.031L326.465 194.039L313.555 194.04L296.285 156.128L303.674 144.031Z" fill="#02512D"/>
<path d="M312.926 131.167H275.338L268.938 144.035H303.668L326.458 194.044H244.06L237.66 206.912H347.439L312.926 131.167Z" fill="#3AB560"/>
<path d="M296.286 156.127L303.675 144.031L268.945 144.03L262.931 156.127L296.286 156.127Z" fill="#058A40"/>
<path d="M313.558 194.035H326.467L303.676 144.026L296.287 156.123L313.558 194.035Z" fill="#02512D"/>
<path d="M239.764 191.356C241.405 187.078 237.819 181.723 231.754 179.393C225.69 177.064 219.444 178.642 217.803 182.919C216.163 187.196 219.749 192.552 225.813 194.881C231.878 197.211 238.124 195.632 239.764 191.356Z" fill="#F4EFD4"/>
<path d="M265.502 184.949C271.494 182.029 275.563 178.039 274.589 176.039C273.615 174.039 267.968 174.785 261.976 177.705C255.984 180.626 251.916 184.616 252.89 186.616C253.863 188.616 259.51 187.87 265.502 184.949Z" fill="#F4EFD4"/>
<path d="M308.107 190.339C310.674 186.33 308.205 180.163 302.594 176.565C296.982 172.966 290.351 173.299 287.784 177.308C285.217 181.318 287.686 187.485 293.297 191.083C298.909 194.682 305.54 194.349 308.107 190.339Z" fill="#F4EFD4"/>
<path d="M332.167 190.966C333.355 187.676 329.236 183.171 322.967 180.906C316.699 178.64 310.654 179.47 309.467 182.761C308.279 186.052 312.398 190.556 318.666 192.822C324.935 195.088 330.979 194.257 332.167 190.966Z" fill="#F4EFD4"/>
<path d="M343.009 204.016C344.895 201.07 341.521 195.538 335.472 191.659C329.423 187.781 322.99 187.025 321.104 189.971C319.218 192.916 322.592 198.449 328.641 202.327C334.69 206.206 341.123 206.962 343.009 204.016Z" fill="#F4EFD4"/>
<path d="M257.753 175.05L253.925 171.239C251.175 168.685 245.369 170.477 240.947 175.248C236.526 180.009 235.18 185.939 237.92 188.493L241.749 192.304C244.498 194.858 250.305 193.066 254.726 188.295C259.148 183.533 260.494 177.604 257.753 175.05Z" fill="#F4EFD4"/>
<path d="M223.253 188.229C216.755 188.229 211.492 191.941 211.492 196.524V202.117C211.492 206.7 216.755 210.412 223.253 210.412C229.752 210.412 234.817 206.828 234.995 202.354H235.015V196.514C235.015 191.931 229.752 188.219 223.253 188.219V188.229Z" fill="#F4EFD4"/>
<path d="M297.205 174.262L297.185 170.946C296.849 166.62 291.279 163.522 284.741 164.027C278.203 164.532 273.178 168.462 273.514 172.787V174.906C273.494 175.173 273.494 175.45 273.514 175.717C273.85 180.043 279.419 183.142 285.958 182.637C292.298 182.142 297.205 178.43 297.185 174.252H297.205V174.262Z" fill="#F4EFD4"/>
<path d="M314.689 168.067C308.141 166.829 302.424 168.017 301.919 170.72L301.336 176.095C300.831 178.797 305.727 181.985 312.266 183.212C318.814 184.449 324.532 183.261 325.036 180.559L325.62 175.184C326.125 172.482 321.228 169.294 314.689 168.067Z" fill="#F4EFD4"/>
<path d="M354.033 193.956L351.273 189.769C349.206 186.176 342.846 185.968 337.079 189.304C331.312 192.64 328.315 198.252 330.382 201.836L333.142 206.023C335.209 209.616 341.57 209.824 347.337 206.488C353.103 203.152 356.101 197.54 354.033 193.956Z" fill="#F4EFD4"/>
<path d="M371.498 204.319L370.034 200.379C369.045 197.023 362.655 195.964 355.76 198.003C348.876 200.043 344.098 204.418 345.087 207.774L346.551 211.713C347.54 215.069 353.93 216.128 360.825 214.089C367.71 212.05 372.487 207.675 371.498 204.319Z" fill="#F4EFD4"/>
<path d="M225.096 204.566V215.138H350.633L348.763 201.358L318.01 184.619L313.47 176.572C313.47 176.572 294.863 178.789 294.814 179.106C294.764 179.423 279.185 175.631 279.185 175.631L265.455 178.749L255.741 183.699L230.616 187.144L225.086 204.566H225.096Z" fill="#F4EFD4"/>
<path d="M269.218 186.493C269.96 183.841 271.325 181.772 271.325 181.762C269.89 184.712 273.867 189.621 280.208 192.71C286.548 195.808 292.859 195.917 294.304 192.957C294.304 192.957 293.581 195.333 291.811 197.649C289.832 200.243 284.332 200.352 277.992 197.253C271.651 194.165 268.476 189.136 269.218 186.474V186.493Z" fill="#3AB560"/>
<path d="M240.319 191.42C242.218 189.42 244.394 188.232 244.394 188.232C241.743 190.163 242.95 196.36 247.104 202.071C251.259 207.783 256.779 210.841 259.43 208.911C259.43 208.911 257.679 210.673 255.028 211.891C252.07 213.247 247.164 210.762 243.009 205.051C238.855 199.339 238.419 193.41 240.319 191.41V191.42Z" fill="#058A40"/>
<path d="M307.283 198.104C307.075 195.946 307.491 194.036 307.491 194.036C307.273 196.609 311.586 199.074 317.116 199.549C322.645 200.014 327.314 198.312 327.532 195.728C327.532 195.728 327.68 197.678 327.037 199.886C326.325 202.351 322.319 203.994 316.779 203.519C311.25 203.053 307.491 200.262 307.283 198.104Z" fill="#3AB560"/>
<path d="M192.802 206.909H261.797V302.601H192.802V206.909Z" fill="#02512D"/>
<path d="M261.795 206.909H393.9V302.601H261.795V206.909Z" fill="#3AB560"/>
<path d="M209.554 224.006H245.056V285.507H209.554V224.006Z" fill="#00301B"/>
<path d="M393.9 206.909H373.226L337.468 302.601H393.9V206.909Z" fill="#F4EFD4"/>
<path d="M276.534 224.006H379.053V285.507H276.534V224.006Z" fill="#02512D"/>
<path d="M209.554 224.006H217.24V285.507H209.554V224.006Z" fill="#058A40"/>
<path d="M308.097 233.142C310.283 239.884 316.594 244.774 324.062 244.774C328.523 244.774 332.569 243.021 335.566 240.181L339.81 235.964L340.027 233.142H379.04V224.006H276.522V233.142H308.097Z" fill="#00301B"/>
<path d="M328.016 240.806C337.287 240.806 344.803 233.285 344.803 224.007C344.803 214.73 337.287 207.209 328.016 207.209C318.746 207.209 311.23 214.73 311.23 224.007C311.23 233.285 318.746 240.806 328.016 240.806Z" fill="#3AB560"/>
<path d="M328.024 234.015C333.553 234.015 338.035 229.53 338.035 223.997C338.035 218.465 333.553 213.979 328.024 213.979C322.495 213.979 318.014 218.465 318.014 223.997C318.014 229.53 322.495 234.015 328.024 234.015Z" fill="#F4EFD4"/>
<path d="M328.025 224.73C329.822 224.73 331.279 223.272 331.279 221.473C331.279 219.674 329.822 218.216 328.025 218.216C326.227 218.216 324.77 219.674 324.77 221.473C324.77 223.272 326.227 224.73 328.025 224.73Z" fill="#00140F"/>
<path d="M328.025 218.867L324.771 228.776L331.279 228.776L328.025 218.867Z" fill="#00140F"/>
<path d="M379.039 285.498H343.853L363.419 233.133H379.039V285.498Z" fill="#058A40"/>
<path d="M10 302.597L30.9706 233.256L81.7155 247.698L140.631 247.461L151.512 256.934L167.131 260.012L203.088 242.957L226.333 302.597H10Z" fill="#02512D"/>
<path d="M151.516 256.932L157.431 302.596L167.135 260.011L151.516 256.932Z" fill="#00301B"/>
<path d="M203.089 242.964L161.929 229.877L140.632 247.467L151.513 256.941L167.132 260.019L203.089 242.964Z" fill="#F4EFD4"/>
<path d="M226.328 302.601L203.083 242.961L167.126 260.017L157.422 302.602L226.328 302.601Z" fill="#058A40"/>
<path d="M161.926 229.878L140.629 212.258L57.2808 206.269L81.7134 247.705L140.629 247.468L161.926 229.878Z" fill="#058A40"/>
<path d="M30.9775 233.263L57.2897 206.269L81.7224 247.705L30.9775 233.263Z" fill="#02512D"/>
<path d="M10.006 302.595L30.9755 233.254L81.7211 247.697L88.1718 302.596L10.006 302.595Z" fill="#00301B"/>
<path d="M117.791 112.599H102.815C100.297 112.599 98.2549 114.642 98.2549 117.162C98.2549 119.682 100.297 121.725 102.815 121.725H117.791C120.31 121.725 122.351 119.682 122.351 117.162C122.351 114.642 120.31 112.599 117.791 112.599Z" fill="#00301B"/>
<path d="M122.351 117.162C122.351 119.686 120.314 121.725 117.791 121.725H102.815C100.293 121.725 98.2549 119.686 98.2549 117.162" fill="#02512D"/>
<path d="M110.296 112.599H117.785C120.307 112.599 122.345 114.638 122.345 117.162C122.345 119.686 120.307 121.725 117.785 121.725H110.296" fill="#058A40"/>
<path d="M110.296 112.599H117.785C120.307 112.599 122.345 114.638 122.345 117.162H110.296" fill="#3AB560"/>
<path d="M117.791 121.726H102.815C100.297 121.726 98.2549 123.769 98.2549 126.289C98.2549 128.809 100.297 130.853 102.815 130.853H117.791C120.31 130.853 122.351 128.809 122.351 126.289C122.351 123.769 120.31 121.726 117.791 121.726Z" fill="#00301B"/>
<path d="M122.351 126.29C122.351 128.814 120.314 130.853 117.791 130.853H102.815C100.293 130.853 98.2549 128.814 98.2549 126.29" fill="#02512D"/>
<path d="M110.296 121.726H117.785C120.307 121.726 122.345 123.765 122.345 126.289C122.345 128.814 120.307 130.853 117.785 130.853H110.296" fill="#058A40"/>
<path d="M110.296 121.726H117.785C120.307 121.726 122.345 123.765 122.345 126.289H110.296" fill="#3AB560"/>
<path d="M117.791 130.853H102.815C100.297 130.853 98.2549 132.896 98.2549 135.416C98.2549 137.937 100.297 139.98 102.815 139.98H117.791C120.31 139.98 122.351 137.937 122.351 135.416C122.351 132.896 120.31 130.853 117.791 130.853Z" fill="#00301B"/>
<path d="M122.351 135.43C122.351 137.955 120.314 139.994 117.791 139.994H102.815C100.293 139.994 98.2549 137.955 98.2549 135.43" fill="#02512D"/>
<path d="M110.296 130.853H117.785C120.307 130.853 122.345 132.892 122.345 135.416C122.345 137.941 120.307 139.98 117.785 139.98H110.296" fill="#058A40"/>
<path d="M110.296 130.853H117.785C120.307 130.853 122.345 132.892 122.345 135.416H110.296" fill="#3AB560"/>
<path d="M117.791 139.994H102.815C100.297 139.994 98.2549 142.037 98.2549 144.557C98.2549 147.077 100.297 149.121 102.815 149.121H117.791C120.31 149.121 122.351 147.077 122.351 144.557C122.351 142.037 120.31 139.994 117.791 139.994Z" fill="#00301B"/>
<path d="M122.351 144.558C122.351 147.082 120.314 149.121 117.791 149.121H102.815C100.293 149.121 98.2549 147.082 98.2549 144.558" fill="#00301B"/>
<path d="M110.296 139.994H117.785C120.307 139.994 122.345 142.033 122.345 144.557C122.345 147.082 120.307 149.121 117.785 149.121H110.296" fill="#3AB560"/>
<path d="M110.296 139.994H117.785C120.307 139.994 122.345 142.033 122.345 144.557H110.296" fill="#3AB560"/>
<path d="M124.188 230.331L110.3 233.35L96.4023 230.331V163.207H124.188V230.331Z" fill="#3AB560"/>
<path d="M124.183 230.338L110.295 233.358L110.296 163.215L124.184 163.215L124.183 230.338Z" fill="#F4EFD4"/>
<path d="M110.296 89.3716C117.963 89.3716 124.185 95.598 124.185 103.27C124.185 110.941 117.963 117.168 110.296 117.168" fill="#058A40"/>
<path d="M110.304 117.168C102.638 117.168 96.416 110.941 96.416 103.27C96.416 95.598 102.638 89.3716 110.304 89.3716" fill="#02512D"/>
<path d="M110.296 94.8071C114.965 94.8071 118.744 98.5886 118.744 103.261C118.744 107.933 114.965 111.714 110.296 111.714" fill="#F4EFD4"/>
<path d="M110.299 111.714C105.63 111.714 101.851 107.933 101.851 103.261C101.851 98.5886 105.63 94.8071 110.299 94.8071" fill="#00301B"/>
<path d="M95.9565 163.218V173.641L124.653 169.295V163.218H95.9565Z" fill="#001410"/>
<path d="M110.302 163.211L75.6019 167.745L63.9692 173.337L73.6929 152.48L110.302 143.086V163.211Z" fill="#02512D"/>
<path d="M110.296 163.211L144.997 167.745L156.62 173.337L146.906 152.48L110.296 143.086V163.211Z" fill="#3AB560"/>
<path d="M156.623 173.338L146.909 152.482L141.083 150.987L145 167.745L156.623 173.338Z" fill="#F4EFD4"/>
<path d="M422.301 213.571L417.632 227.864L412.953 213.57L417.632 199.277L422.301 213.571Z" fill="#058A40"/>
<path d="M417.623 218.253L403.339 213.571L417.623 208.889L431.906 213.571L417.623 218.253Z" fill="#058A40"/>
<path d="M402.717 190.83L399.433 200.887L396.139 190.83L399.433 180.773L402.717 190.83Z" fill="#F4EFD4"/>
<path d="M399.425 194.119L389.365 190.823L399.425 187.527L409.475 190.823L399.425 194.119Z" fill="#F4EFD4"/>
<path d="M57.4495 133.975L53.9874 144.556L50.525 133.974L53.9868 123.393L57.4495 133.975Z" fill="#02512D"/>
<path d="M53.9962 137.439L43.4219 133.974L53.996 130.51L64.5605 133.975L53.9962 137.439Z" fill="#02512D"/>
</g>
<defs>
<filter id="filter0_d_203_395" x="0" y="0" width="442" height="340" filterUnits="userSpaceOnUse" color-interpolation-filters="sRGB">
<feFlood flood-opacity="0" result="BackgroundImageFix"/>
<feColorMatrix in="SourceAlpha" type="matrix" values="0 0 0 0 0 0 0 0 0 0 0 0 0 0 0 0 0 0 127 0" result="hardAlpha"/>
<feOffset dy="4"/>
<feGaussianBlur stdDeviation="5"/>
<feComposite in2="hardAlpha" operator="out"/>
<feColorMatrix type="matrix" values="0 0 0 0 0 0 0 0 0 0 0 0 0 0 0 0 0 0 1 0"/>
<feBlend mode="normal" in2="BackgroundImageFix" result="effect1_dropShadow_203_395"/>
<feBlend mode="normal" in="SourceGraphic" in2="effect1_dropShadow_203_395" result="shape"/>
</filter>
</defs>
</svg>
