<svg width="215" height="176" viewBox="0 0 215 176" fill="none" xmlns="http://www.w3.org/2000/svg">
  <path
    d="M107.573 167.809C147.167 167.809 183.017 151.815 209.031 125.927L214.675 131.597C187.223 158.917 149.367 175.809 107.573 175.809V167.809ZM5.98696 125.799C32.009 151.763 67.913 167.809 107.573 167.809V175.809C65.709 175.809 27.797 158.861 0.334961 131.463L5.98696 125.799Z"
    fill="#044F28" />
  <path
    d="M37.229 94.9C55.285 112.812 80.131 123.87 107.569 123.87V131.87C77.937 131.87 51.087 119.916 31.593 100.578L37.229 94.9ZM107.569 123.87C134.989 123.87 159.823 112.826 177.875 94.934L183.507 100.616C164.017 119.932 137.183 131.87 107.569 131.87V123.87Z"
    fill="#044F28" />
  <path
    d="M107.573 79.9031C123.005 79.9031 136.973 73.6571 147.097 63.5451L152.751 69.2071C141.187 80.7551 125.211 87.9031 107.573 87.9031V79.9031ZM67.9809 63.4791C78.1089 73.6291 92.1049 79.9031 107.573 79.9031V87.9031C89.8949 87.9031 73.8869 80.7231 62.3169 69.1311L67.9809 63.4791Z"
    fill="#044F28" />
  <path
    d="M123.549 23.9771C123.549 15.1531 116.397 7.99908 107.573 7.99908V-0.000923157C120.815 -0.000923157 131.549 10.7351 131.549 23.9771H123.549ZM107.573 7.99908C98.749 7.99908 91.595 15.1531 91.595 23.9771H83.595C83.595 10.7351 94.329 -0.000923157 107.573 -0.000923157V7.99908ZM107.573 39.9551C111.981 39.9551 115.967 38.1731 118.863 35.2811L124.517 40.9431C120.183 45.2711 114.187 47.9551 107.573 47.9551V39.9551ZM118.863 35.2811C121.763 32.3851 123.549 28.3931 123.549 23.9771H131.549C131.549 30.6031 128.857 36.6071 124.517 40.9431L118.863 35.2811ZM91.595 23.9771C91.595 28.3851 93.375 32.3691 96.263 35.2631L90.599 40.9131C86.275 36.5811 83.595 30.5871 83.595 23.9771H91.595ZM96.263 35.2631C99.159 38.1651 103.153 39.9551 107.573 39.9551V47.9551C100.943 47.9551 94.935 45.2591 90.599 40.9131L96.263 35.2631Z"
    fill="#044F28" />
</svg>
  
